<svg width="35" height="36" viewBox="0 0 35 36" fill="none" xmlns="http://www.w3.org/2000/svg">
<rect width="2.52495" height="11.8867" transform="translate(16.2383 12.3867)" fill="#FF7900"/>
<rect width="5.28297" height="2.64149" transform="translate(13.208 12.3867)" fill="#FF7900"/>
<rect width="2.64149" height="2.64149" transform="translate(19.1514 12.3867)" fill="#FF7900"/>
<path fill-rule="evenodd" clip-rule="evenodd" d="M18.7691 28.1198C24.724 28.1198 29.5514 23.294 29.5514 17.341C29.5514 11.3881 24.724 6.56226 18.7691 6.56226C13.3435 6.56226 8.85387 10.5683 8.09863 15.783C9.14032 11.4901 13.0102 8.3023 17.6248 8.3023C23.0383 8.3023 27.4269 12.6894 27.4269 18.1012C27.4269 23.5129 23.0383 27.9 17.6248 27.9C17.0892 27.9 16.5637 27.8571 16.0514 27.7745C16.9196 27.9998 17.8304 28.1198 18.7691 28.1198Z" fill="#FF7900"/>
<path fill-rule="evenodd" clip-rule="evenodd" d="M23.1257 29.8862C16.5561 32.9865 8.71636 30.1759 5.61502 23.6085C2.51368 17.0411 5.32521 9.20388 11.8947 6.10355C17.1554 3.62093 23.2305 4.92851 27.0349 8.92021C23.5677 5.42058 18.1405 4.30192 13.4312 6.52434C7.45889 9.34282 4.90296 16.4676 7.72236 22.4379C10.5418 28.4083 17.6688 30.9634 23.6411 28.1449C29.3229 25.4635 31.9126 18.8846 29.7235 13.1102C32.295 19.5183 29.4538 26.8998 23.1257 29.8862Z" fill="#001E9A"/>
</svg>
