<svg width="363" height="158" viewBox="0 0 363 158" fill="none" xmlns="http://www.w3.org/2000/svg">
<path d="M97.0581 17.2835C71.9397 17.6674 37.1358 64.5177 36.8947 39.3329C37.1398 64.935 71.531 18.4465 97.0654 18.0484L148.216 17.5568C148.927 17.6415 149.002 17.5594 149.743 17.5421L161.958 17.4247L165.012 17.3953C172.42 17.2834 178.409 22.4043 179.634 29.4958C179.52 30.2805 179.648 30.9666 179.656 31.7908L180.067 74.6306L180.83 74.6232L180.42 31.7835C180.341 23.531 187.318 17.13 195.549 17.1018L206.238 16.999C206.989 17.002 207.808 17.0755 208.528 16.977L263.496 16.4486C289.033 16.3558 321.102 72.1823 323.811 47.2059C324.052 72.3907 288.61 15.5846 263.489 15.6836L211.574 16.1827C222.212 16.0804 217.064 14.628 218.203 4.31166C217.661 16.2569 215.981 16.1403 208.521 16.212L195.542 16.3368C188.274 16.2744 182.187 21.2551 180.383 27.9585C178.462 21.2909 172.27 16.4384 165.004 16.6303L161.951 16.6597L148.209 16.7918C140.902 15.9359 134.393 9.19836 134.328 2.38892C134.393 9.19836 138.271 14.7604 144.392 16.8285L97.0581 17.2835Z" fill="#D6D3D1"/>
<rect width="35.763" height="9.23041" transform="matrix(0.999968 -0.00804258 -0.00800996 -0.999968 199.223 16.129)" fill="white"/>
<rect width="35.763" height="16.6417" transform="matrix(0.999968 -0.00804258 -0.00800996 -0.999968 126.105 17.0714)" fill="white"/>
<g filter="url(#filter0_d_270_1583)">
<rect x="10" y="20.7753" width="49.3096" height="45.0661" rx="10.434" fill="white"/>
<rect x="10.3478" y="21.1231" width="48.614" height="44.3705" rx="10.0862" stroke="black" stroke-opacity="0.08" stroke-width="0.695601"/>
<path fill-rule="evenodd" clip-rule="evenodd" d="M34.3458 52.7729C39.7242 52.7729 44.0843 48.4128 44.0843 43.0344C44.0843 37.6561 39.7242 33.296 34.3458 33.296C28.9675 33.296 24.6074 37.6561 24.6074 43.0344C24.6074 44.781 25.0672 46.4202 25.8724 47.8375L24.6074 52.7729L29.6957 51.593C31.0775 52.3454 32.6617 52.7729 34.3458 52.7729ZM34.3458 51.2746C38.8968 51.2746 42.586 47.5854 42.586 43.0344C42.586 38.4835 38.8968 34.7942 34.3458 34.7942C29.7949 34.7942 26.1056 38.4835 26.1056 43.0344C26.1056 44.7916 26.6556 46.4203 27.5928 47.7577L26.8547 50.5255L29.6714 49.8214C30.9996 50.7379 32.61 51.2746 34.3458 51.2746Z" fill="#BFC8D0"/>
<path d="M42.6944 42.3388C42.6944 46.9488 38.9573 50.686 34.3472 50.686C32.5889 50.686 30.9575 50.1423 29.612 49.2139L26.7588 49.9272L27.5065 47.1234C26.5571 45.7686 26 44.1187 26 42.3388C26 37.7288 29.7372 33.9916 34.3472 33.9916C38.9573 33.9916 42.6944 37.7288 42.6944 42.3388Z" fill="url(#paint0_linear_270_1583)"/>
<path fill-rule="evenodd" clip-rule="evenodd" d="M34.3458 52.0773C39.7242 52.0773 44.0843 47.7173 44.0843 42.3389C44.0843 36.9605 39.7242 32.6005 34.3458 32.6005C28.9675 32.6005 24.6074 36.9605 24.6074 42.3389C24.6074 44.0855 25.0672 45.7246 25.8724 47.142L24.6074 52.0773L29.6957 50.8974C31.0775 51.6498 32.6617 52.0773 34.3458 52.0773ZM34.3458 50.5791C38.8968 50.5791 42.586 46.8898 42.586 42.3389C42.586 37.7879 38.8968 34.0987 34.3458 34.0987C29.7949 34.0987 26.1056 37.7879 26.1056 42.3389C26.1056 44.096 26.6556 45.7247 27.5928 47.0622L26.8547 49.83L29.6714 49.1258C30.9996 50.0424 32.61 50.5791 34.3458 50.5791Z" fill="white"/>
<path d="M31.911 37.8174C31.6795 37.3523 31.3243 37.3935 30.9654 37.3935C30.3242 37.3935 29.3242 38.1616 29.3242 39.5912C29.3242 40.7628 29.8405 42.0454 31.5802 43.9639C33.2591 45.8154 35.4651 46.7732 37.2965 46.7406C39.1279 46.708 39.5047 45.132 39.5047 44.5998C39.5047 44.3639 39.3583 44.2462 39.2574 44.2142C38.6333 43.9147 37.4823 43.3567 37.2204 43.2518C36.9585 43.1469 36.8217 43.2888 36.7367 43.3659C36.4992 43.5923 36.0284 44.2593 35.8672 44.4093C35.706 44.5594 35.4657 44.4834 35.3657 44.4267C34.9977 44.279 33.9998 43.8352 33.2044 43.0641C32.2208 42.1106 32.163 41.7825 31.9777 41.4905C31.8294 41.2568 31.9382 41.1135 31.9925 41.0509C32.2045 40.8063 32.4971 40.4288 32.6283 40.2411C32.7596 40.0535 32.6554 39.7687 32.5929 39.5912C32.324 38.8282 32.0962 38.1895 31.911 37.8174Z" fill="white"/>
</g>
<g filter="url(#filter1_d_270_1583)">
<rect x="303.689" y="20.7753" width="49.3096" height="45.0661" rx="10.434" fill="white"/>
<rect x="304.037" y="21.1231" width="48.614" height="44.3705" rx="10.0862" stroke="black" stroke-opacity="0.08" stroke-width="0.695601"/>
<circle cx="328.037" cy="42.3389" r="9.73842" fill="url(#paint1_linear_270_1583)"/>
<path d="M332.898 38.3104C332.984 37.7502 332.452 37.3079 331.953 37.5266L322.031 41.8831C321.674 42.0399 321.7 42.5811 322.071 42.6991L324.117 43.3507C324.507 43.4751 324.93 43.4108 325.271 43.1751L329.885 39.9879C330.024 39.8918 330.175 40.0896 330.056 40.2121L326.736 43.6359C326.414 43.968 326.477 44.5308 326.865 44.7737L330.583 47.1053C331 47.3668 331.536 47.1041 331.614 46.6002L332.898 38.3104Z" fill="white"/>
</g>
<path d="M97.0083 140.684C71.8829 140.3 37.0693 93.4494 36.8281 118.634C37.0733 93.0322 71.4741 139.521 97.0156 139.919L148.181 140.41C148.892 140.326 148.967 140.408 149.708 140.425L161.926 140.543L164.981 140.572C172.392 140.684 178.382 135.563 179.608 128.471C179.493 127.687 179.622 127.001 179.63 126.176L180.04 83.3366L180.804 83.3439L180.393 126.184C180.314 134.436 187.293 140.837 195.527 140.865L206.218 140.968C206.97 140.965 207.789 140.892 208.509 140.99L263.493 141.519C289.037 141.611 321.115 85.7848 323.825 110.761C324.066 85.5764 288.613 142.383 263.485 142.284L211.557 141.785C222.197 141.887 217.048 143.339 218.187 153.655C217.645 141.71 215.964 141.827 208.502 141.755L195.52 141.63C188.25 141.693 182.161 136.712 180.357 130.009C178.435 136.676 172.241 141.529 164.974 141.337L161.919 141.307L148.173 141.175C140.865 142.031 134.353 148.769 134.288 155.578C134.353 148.769 138.233 143.207 144.355 141.139L97.0083 140.684Z" fill="#D6D3D1"/>
<rect width="35.773" height="9.23041" transform="matrix(0.999968 0.00804034 -0.0080122 0.999968 199.201 141.838)" fill="white"/>
<rect width="35.773" height="16.6417" transform="matrix(0.999968 0.00804034 -0.0080122 0.999968 126.064 140.896)" fill="white"/>
<g filter="url(#filter2_d_270_1583)">
<rect x="303.773" y="86.5992" width="49.2275" height="45.3061" rx="10.434" fill="white"/>
<rect x="304.121" y="86.947" width="48.5319" height="44.6105" rx="10.0862" stroke="black" stroke-opacity="0.08" stroke-width="0.695601"/>
<path d="M318.379 105.102C318.379 102.765 318.379 101.596 318.834 100.703C319.234 99.9181 319.872 99.2796 320.658 98.8795C321.551 98.4246 322.719 98.4246 325.057 98.4246H331.178C333.515 98.4246 334.684 98.4246 335.577 98.8795C336.362 99.2796 337.001 99.9181 337.401 100.703C337.856 101.596 337.856 102.765 337.856 105.102V111.224C337.856 113.561 337.856 114.73 337.401 115.623C337.001 116.408 336.362 117.046 335.577 117.447C334.684 117.901 333.515 117.901 331.178 117.901H325.057C322.719 117.901 321.551 117.901 320.658 117.447C319.872 117.046 319.234 116.408 318.834 115.623C318.379 114.73 318.379 113.561 318.379 111.224V105.102Z" fill="white"/>
<path d="M333.43 103.53C332.439 103.095 331.38 102.778 330.273 102.598C330.137 102.829 329.978 103.14 329.868 103.387C328.691 103.221 327.525 103.221 326.369 103.387C326.26 103.14 326.097 102.829 325.96 102.598C324.852 102.778 323.791 103.096 322.801 103.533C320.803 106.369 320.261 109.135 320.532 111.862C321.857 112.792 323.141 113.357 324.404 113.727C324.716 113.324 324.994 112.895 325.233 112.443C324.777 112.281 324.34 112.08 323.927 111.846C324.037 111.77 324.144 111.69 324.247 111.608C326.766 112.715 329.501 112.715 331.989 111.608C332.094 111.69 332.201 111.77 332.309 111.846C331.895 112.081 331.457 112.282 331.001 112.445C331.241 112.895 331.517 113.325 331.83 113.728C333.094 113.358 334.38 112.793 335.705 111.862C336.023 108.701 335.162 105.96 333.43 103.53ZM325.576 110.185C324.82 110.185 324.201 109.522 324.201 108.715C324.201 107.908 324.807 107.244 325.576 107.244C326.345 107.244 326.965 107.907 326.952 108.715C326.953 109.522 326.345 110.185 325.576 110.185ZM330.661 110.185C329.905 110.185 329.285 109.522 329.285 108.715C329.285 107.908 329.891 107.244 330.661 107.244C331.43 107.244 332.05 107.907 332.036 108.715C332.036 109.522 331.43 110.185 330.661 110.185Z" fill="#5865F2"/>
</g>
<g filter="url(#filter3_d_270_1583)">
<rect x="10" y="86.5992" width="49.2275" height="45.3061" rx="10.434" fill="white"/>
<rect x="10.3478" y="86.947" width="48.5319" height="44.6105" rx="10.0862" stroke="black" stroke-opacity="0.08" stroke-width="0.695601"/>
<path d="M24.6074 105.35C24.6074 102.926 24.6074 101.714 25.0792 100.788C25.4941 99.9734 26.1563 99.3113 26.9707 98.8963C27.8965 98.4246 29.1085 98.4246 31.5325 98.4246H37.1592C39.5832 98.4246 40.7952 98.4246 41.721 98.8963C42.5354 99.3113 43.1976 99.9734 43.6125 100.788C44.0843 101.714 44.0843 102.926 44.0843 105.35V110.976C44.0843 113.4 44.0843 114.612 43.6125 115.538C43.1976 116.353 42.5354 117.015 41.721 117.43C40.7952 117.901 39.5832 117.901 37.1592 117.901H31.5325C29.1085 117.901 27.8965 117.901 26.9707 117.43C26.1563 117.015 25.4941 116.353 25.0792 115.538C24.6074 114.612 24.6074 113.4 24.6074 110.976V105.35Z" fill="white"/>
<path d="M26.6934 113.422C26.6934 113.975 27.1455 114.423 27.7025 114.423H27.7171C27.1515 114.423 26.6934 113.975 26.6934 113.422Z" fill="#FBBC05"/>
<path d="M35.365 105.659V108.274L38.8908 105.43V102.904C38.8908 102.351 38.4386 101.902 37.8816 101.902H30.2432L30.2363 105.659H35.365Z" fill="#FBBC05"/>
<path d="M35.3658 110.89H30.2286L30.2227 114.423H37.8824C38.4403 114.423 38.8916 113.975 38.8916 113.422V111.141L35.3658 108.275V110.89Z" fill="#34A853"/>
<path d="M30.2439 101.902L26.6934 105.659H30.2379L30.2439 101.902Z" fill="#EA4335"/>
<path d="M26.6934 110.89V113.422C26.6934 113.975 27.1515 114.423 27.7171 114.423H30.2225L30.2285 110.89H26.6934Z" fill="#1967D2"/>
<path d="M30.2379 105.659H26.6934V110.89H30.2285L30.2379 105.659Z" fill="#4285F4"/>
<path d="M41.9918 112.531V103.934C41.793 102.793 40.5416 104.101 40.5416 104.101L38.8926 105.43V111.141L41.253 113.06C42.1053 113.171 41.9918 112.531 41.9918 112.531Z" fill="#34A853"/>
<path d="M35.3652 108.274L38.8919 111.141V105.431L35.3652 108.274Z" fill="#188038"/>
</g>
<g filter="url(#filter4_d_270_1583)">
<rect x="150.883" y="51.0778" width="58.7419" height="55.5543" rx="14.1163" fill="white"/>
<rect x="151.11" y="51.3054" width="58.2865" height="55.099" rx="13.8886" stroke="black" stroke-opacity="0.08" stroke-width="0.455363"/>
<g filter="url(#filter5_d_270_1583)">
<rect width="2.51575" height="11.8434" transform="translate(179.371 73.6887)" fill="#FF7900"/>
<rect width="5.26373" height="2.63186" transform="translate(176.352 73.6886)" fill="#FF7900"/>
<rect width="2.63186" height="2.63186" transform="translate(182.273 73.6886)" fill="#FF7900"/>
<path fill-rule="evenodd" clip-rule="evenodd" d="M181.896 89.3642C187.829 89.3642 192.639 84.556 192.639 78.6247C192.639 72.6935 187.829 67.8853 181.896 67.8853C176.493 67.8853 172.021 71.8732 171.266 77.0654C172.306 72.7917 176.16 69.6189 180.755 69.6189C186.149 69.6189 190.522 73.99 190.522 79.3821C190.522 84.7741 186.149 89.1453 180.755 89.1453C180.222 89.1453 179.699 89.1025 179.189 89.0204C180.054 89.2448 180.961 89.3642 181.896 89.3642Z" fill="#FF7900"/>
<path fill-rule="evenodd" clip-rule="evenodd" d="M186.235 91.1242C179.69 94.2132 171.878 91.4128 168.788 84.8694C165.698 78.3259 168.5 70.5172 175.045 67.4282C180.291 64.9524 186.351 66.2598 190.141 70.2455C186.686 66.75 181.273 65.6307 176.576 67.8474C170.625 70.6556 168.078 77.7544 170.887 83.703C173.697 89.6516 180.798 92.1974 186.748 89.3892C192.416 86.7143 194.996 80.1465 192.8 74.388C195.377 80.7777 192.547 88.1454 186.235 91.1242Z" fill="#001E9A"/>
</g>
</g>
<defs>
<filter id="filter0_d_270_1583" x="0.748502" y="11.5238" width="67.8116" height="63.5692" filterUnits="userSpaceOnUse" color-interpolation-filters="sRGB">
<feFlood flood-opacity="0" result="BackgroundImageFix"/>
<feColorMatrix in="SourceAlpha" type="matrix" values="0 0 0 0 0 0 0 0 0 0 0 0 0 0 0 0 0 0 127 0" result="hardAlpha"/>
<feOffset/>
<feGaussianBlur stdDeviation="4.62575"/>
<feComposite in2="hardAlpha" operator="out"/>
<feColorMatrix type="matrix" values="0 0 0 0 0 0 0 0 0 0 0 0 0 0 0 0 0 0 0.09 0"/>
<feBlend mode="normal" in2="BackgroundImageFix" result="effect1_dropShadow_270_1583"/>
<feBlend mode="normal" in="SourceGraphic" in2="effect1_dropShadow_270_1583" result="shape"/>
</filter>
<filter id="filter1_d_270_1583" x="294.438" y="11.5238" width="67.8116" height="63.5692" filterUnits="userSpaceOnUse" color-interpolation-filters="sRGB">
<feFlood flood-opacity="0" result="BackgroundImageFix"/>
<feColorMatrix in="SourceAlpha" type="matrix" values="0 0 0 0 0 0 0 0 0 0 0 0 0 0 0 0 0 0 127 0" result="hardAlpha"/>
<feOffset/>
<feGaussianBlur stdDeviation="4.62575"/>
<feComposite in2="hardAlpha" operator="out"/>
<feColorMatrix type="matrix" values="0 0 0 0 0 0 0 0 0 0 0 0 0 0 0 0 0 0 0.09 0"/>
<feBlend mode="normal" in2="BackgroundImageFix" result="effect1_dropShadow_270_1583"/>
<feBlend mode="normal" in="SourceGraphic" in2="effect1_dropShadow_270_1583" result="shape"/>
</filter>
<filter id="filter2_d_270_1583" x="294.522" y="77.3477" width="67.7296" height="63.809" filterUnits="userSpaceOnUse" color-interpolation-filters="sRGB">
<feFlood flood-opacity="0" result="BackgroundImageFix"/>
<feColorMatrix in="SourceAlpha" type="matrix" values="0 0 0 0 0 0 0 0 0 0 0 0 0 0 0 0 0 0 127 0" result="hardAlpha"/>
<feOffset/>
<feGaussianBlur stdDeviation="4.62575"/>
<feComposite in2="hardAlpha" operator="out"/>
<feColorMatrix type="matrix" values="0 0 0 0 0 0 0 0 0 0 0 0 0 0 0 0 0 0 0.09 0"/>
<feBlend mode="normal" in2="BackgroundImageFix" result="effect1_dropShadow_270_1583"/>
<feBlend mode="normal" in="SourceGraphic" in2="effect1_dropShadow_270_1583" result="shape"/>
</filter>
<filter id="filter3_d_270_1583" x="0.748502" y="77.3477" width="67.7296" height="63.809" filterUnits="userSpaceOnUse" color-interpolation-filters="sRGB">
<feFlood flood-opacity="0" result="BackgroundImageFix"/>
<feColorMatrix in="SourceAlpha" type="matrix" values="0 0 0 0 0 0 0 0 0 0 0 0 0 0 0 0 0 0 127 0" result="hardAlpha"/>
<feOffset/>
<feGaussianBlur stdDeviation="4.62575"/>
<feComposite in2="hardAlpha" operator="out"/>
<feColorMatrix type="matrix" values="0 0 0 0 0 0 0 0 0 0 0 0 0 0 0 0 0 0 0.09 0"/>
<feBlend mode="normal" in2="BackgroundImageFix" result="effect1_dropShadow_270_1583"/>
<feBlend mode="normal" in="SourceGraphic" in2="effect1_dropShadow_270_1583" result="shape"/>
</filter>
<filter id="filter4_d_270_1583" x="144.826" y="45.0214" width="70.8549" height="67.667" filterUnits="userSpaceOnUse" color-interpolation-filters="sRGB">
<feFlood flood-opacity="0" result="BackgroundImageFix"/>
<feColorMatrix in="SourceAlpha" type="matrix" values="0 0 0 0 0 0 0 0 0 0 0 0 0 0 0 0 0 0 127 0" result="hardAlpha"/>
<feOffset/>
<feGaussianBlur stdDeviation="3.02817"/>
<feComposite in2="hardAlpha" operator="out"/>
<feColorMatrix type="matrix" values="0 0 0 0 0 0 0 0 0 0 0 0 0 0 0 0 0 0 0.09 0"/>
<feBlend mode="normal" in2="BackgroundImageFix" result="effect1_dropShadow_270_1583"/>
<feBlend mode="normal" in="SourceGraphic" in2="effect1_dropShadow_270_1583" result="shape"/>
</filter>
<filter id="filter5_d_270_1583" x="146.453" y="50.0881" width="67.3874" height="65.2198" filterUnits="userSpaceOnUse" color-interpolation-filters="sRGB">
<feFlood flood-opacity="0" result="BackgroundImageFix"/>
<feColorMatrix in="SourceAlpha" type="matrix" values="0 0 0 0 0 0 0 0 0 0 0 0 0 0 0 0 0 0 127 0" result="hardAlpha"/>
<feOffset dy="3.98543"/>
<feGaussianBlur stdDeviation="4.38397"/>
<feComposite in2="hardAlpha" operator="out"/>
<feColorMatrix type="matrix" values="0 0 0 0 0 0 0 0 0 0 0 0 0 0 0 0 0 0 0.1 0"/>
<feBlend mode="normal" in2="BackgroundImageFix" result="effect1_dropShadow_270_1583"/>
<feBlend mode="normal" in="SourceGraphic" in2="effect1_dropShadow_270_1583" result="shape"/>
</filter>
<linearGradient id="paint0_linear_270_1583" x1="41.651" y1="36.0784" x2="26" y2="50.686" gradientUnits="userSpaceOnUse">
<stop stop-color="#5BD066"/>
<stop offset="1" stop-color="#27B43E"/>
</linearGradient>
<linearGradient id="paint1_linear_270_1583" x1="328.037" y1="32.6005" x2="328.037" y2="52.0773" gradientUnits="userSpaceOnUse">
<stop stop-color="#37BBFE"/>
<stop offset="1" stop-color="#007DBB"/>
</linearGradient>
</defs>
</svg>
