<svg width="934" height="408" viewBox="0 0 934 408" fill="none" xmlns="http://www.w3.org/2000/svg">
<path d="M248.881 44.2765C183.998 45.2681 94.0969 166.287 93.4741 101.232C94.1072 167.365 182.943 47.2808 248.9 46.2525L381.027 44.9824C382.865 45.2013 383.058 44.9892 384.971 44.9445L416.524 44.6412L424.412 44.5654C443.549 44.2762 459.019 57.5041 462.184 75.8221C461.888 77.8491 462.22 79.6212 462.24 81.7502L463.3 192.409L465.272 192.39L464.212 81.7313C464.008 60.4144 482.03 43.8801 503.294 43.8071L530.902 43.5417C532.842 43.5494 534.959 43.7393 536.818 43.4848L678.805 42.12C744.77 41.8802 827.607 186.085 834.606 121.569C835.228 186.624 743.676 39.8881 678.786 40.1439L544.687 41.433C572.165 41.1688 558.868 37.4172 561.808 10.7691C560.409 41.6248 556.069 41.3236 536.799 41.5088L503.275 41.8311C484.5 41.6699 468.776 54.5356 464.118 71.851C459.155 54.628 443.161 42.0935 424.393 42.5893L416.505 42.6651L381.008 43.0064C362.135 40.7956 345.32 23.3919 345.152 5.80253C345.32 23.3919 355.339 37.7591 371.148 43.1011L248.881 44.2765Z" fill="#D6D3D1"/>
<rect width="92.379" height="23.843" transform="matrix(0.999968 -0.00804258 -0.00800996 -0.999968 512.775 41.2947)" fill="white"/>
<rect width="92.379" height="42.987" transform="matrix(0.999968 -0.00804258 -0.00800996 -0.999968 323.914 43.7285)" fill="white"/>
<g filter="url(#filter0_d_267_2461)">
<rect x="24" y="53.2961" width="127.371" height="116.41" rx="26.952" fill="white"/>
<rect x="24.8984" y="54.1945" width="125.574" height="114.613" rx="26.0536" stroke="black" stroke-opacity="0.08" stroke-width="1.7968"/>
<path fill-rule="evenodd" clip-rule="evenodd" d="M86.8876 135.949C100.78 135.949 112.043 124.687 112.043 110.794C112.043 96.9009 100.78 85.6385 86.8876 85.6385C72.9948 85.6385 61.7324 96.9009 61.7324 110.794C61.7324 115.305 62.9201 119.539 64.9999 123.201L61.7324 135.949L74.8758 132.901C78.4451 134.845 82.5374 135.949 86.8876 135.949ZM86.8876 132.079C98.6431 132.079 108.173 122.549 108.173 110.794C108.173 99.0383 98.6431 89.5086 86.8876 89.5086C75.1322 89.5086 65.6025 99.0383 65.6025 110.794C65.6025 115.333 67.0231 119.54 69.444 122.994L67.5375 130.144L74.813 128.325C78.2439 130.693 82.4039 132.079 86.8876 132.079Z" fill="#BFC8D0"/>
<path d="M108.449 108.997C108.449 120.905 98.7959 130.559 86.8878 130.559C82.3458 130.559 78.1318 129.154 74.6563 126.756L67.2863 128.598L69.2176 121.356C66.7653 117.856 65.3262 113.595 65.3262 108.997C65.3262 97.0888 74.9796 87.4354 86.8878 87.4354C98.7959 87.4354 108.449 97.0888 108.449 108.997Z" fill="url(#paint0_linear_267_2461)"/>
<path fill-rule="evenodd" clip-rule="evenodd" d="M86.8876 134.152C100.78 134.152 112.043 122.89 112.043 108.997C112.043 95.1042 100.78 83.8418 86.8876 83.8418C72.9948 83.8418 61.7324 95.1042 61.7324 108.997C61.7324 113.509 62.9201 117.743 64.9999 121.404L61.7324 134.152L74.8758 131.104C78.4451 133.048 82.5374 134.152 86.8876 134.152ZM86.8876 130.282C98.6431 130.282 108.173 120.752 108.173 108.997C108.173 97.2415 98.6431 87.7118 86.8876 87.7118C75.1322 87.7118 65.6025 97.2415 65.6025 108.997C65.6025 113.536 67.0231 117.743 69.444 121.198L67.5375 128.347L74.813 126.528C78.2439 128.896 82.4039 130.282 86.8876 130.282Z" fill="white"/>
<path d="M80.5989 97.3178C80.0008 96.1165 79.0833 96.2229 78.1564 96.2229C76.4999 96.2229 73.917 98.207 73.917 101.9C73.917 104.926 75.2506 108.239 79.7443 113.195C84.0811 117.977 89.7794 120.451 94.51 120.367C99.2407 120.283 100.214 116.212 100.214 114.837C100.214 114.228 99.8358 113.924 99.5753 113.841C97.9633 113.068 94.99 111.626 94.3135 111.355C93.637 111.085 93.2838 111.451 93.0642 111.65C92.4507 112.235 91.2346 113.958 90.8182 114.345C90.4018 114.733 89.781 114.537 89.5227 114.39C88.572 114.009 85.9945 112.862 83.9399 110.871C81.399 108.407 81.2499 107.56 80.7712 106.806C80.3882 106.202 80.6692 105.832 80.8094 105.67C81.3569 105.038 82.1128 104.063 82.4518 103.579C82.7908 103.094 82.5217 102.358 82.3602 101.9C81.6657 99.9288 81.0774 98.2789 80.5989 97.3178Z" fill="white"/>
</g>
<g filter="url(#filter1_d_267_2461)">
<rect x="782.628" y="53.2961" width="127.371" height="116.41" rx="26.952" fill="white"/>
<rect x="783.526" y="54.1945" width="125.574" height="114.613" rx="26.0536" stroke="black" stroke-opacity="0.08" stroke-width="1.7968"/>
<circle cx="845.518" cy="108.997" r="25.1552" fill="url(#paint1_linear_267_2461)"/>
<path d="M858.07 98.5913C858.294 97.1441 856.918 96.0017 855.632 96.5667L830.001 107.82C829.078 108.225 829.146 109.623 830.103 109.928L835.389 111.611C836.397 111.932 837.49 111.766 838.371 111.157L850.287 102.924C850.647 102.676 851.038 103.187 850.731 103.503L842.154 112.347C841.321 113.205 841.487 114.659 842.487 115.287L852.091 121.309C853.169 121.985 854.554 121.306 854.756 120.004L858.07 98.5913Z" fill="white"/>
</g>
<path d="M248.756 363.031C183.855 362.039 93.9279 241.02 93.3049 306.075C93.9382 239.943 182.799 360.027 248.775 361.055L380.938 362.325C382.776 362.106 382.969 362.318 384.883 362.363L416.445 362.666L424.335 362.742C443.478 363.031 458.952 349.803 462.117 331.485C461.822 329.458 462.154 327.686 462.174 325.557L463.234 214.898L465.206 214.917L464.147 325.576C463.943 346.893 481.97 363.427 503.239 363.5L530.855 363.766C532.796 363.758 534.913 363.568 536.773 363.823L678.8 365.187C744.783 365.427 827.643 221.222 834.644 285.739C835.267 220.684 743.689 367.419 678.781 367.163L544.644 365.874C572.13 366.139 558.829 369.89 561.77 396.538C560.37 365.683 556.029 365.984 536.754 365.799L503.22 365.476C484.44 365.638 468.712 352.772 464.052 335.456C459.088 352.679 443.09 365.214 424.316 364.718L416.426 364.642L380.919 364.301C362.041 366.512 345.222 383.915 345.053 401.505C345.222 383.915 355.243 369.548 371.056 364.206L248.756 363.031Z" fill="#D6D3D1"/>
<rect width="92.4048" height="23.843" transform="matrix(0.999968 0.00804034 -0.0080122 0.999968 512.722 366.013)" fill="white"/>
<rect width="92.4048" height="42.987" transform="matrix(0.999968 0.00804034 -0.0080122 0.999968 323.806 363.579)" fill="white"/>
<g filter="url(#filter2_d_267_2461)">
<rect x="782.841" y="223.326" width="127.159" height="117.03" rx="26.952" fill="white"/>
<rect x="783.739" y="224.224" width="125.362" height="115.233" rx="26.0536" stroke="black" stroke-opacity="0.08" stroke-width="1.7968"/>
<path d="M820.573 271.121C820.573 265.083 820.573 262.064 821.748 259.758C822.782 257.729 824.431 256.08 826.46 255.046C828.766 253.871 831.785 253.871 837.823 253.871H853.634C859.672 253.871 862.691 253.871 864.997 255.046C867.026 256.08 868.675 257.729 869.709 259.758C870.884 262.064 870.884 265.083 870.884 271.121V286.933C870.884 292.97 870.884 295.989 869.709 298.295C868.675 300.324 867.026 301.973 864.997 303.007C862.691 304.182 859.672 304.182 853.634 304.182H837.823C831.785 304.182 828.766 304.182 826.46 303.007C824.431 301.973 822.782 300.324 821.748 298.295C820.573 295.989 820.573 292.97 820.573 286.933V271.121Z" fill="white"/>
<path d="M859.449 267.06C856.89 265.935 854.154 265.118 851.294 264.652C850.943 265.249 850.532 266.051 850.249 266.69C847.209 266.26 844.196 266.26 841.211 266.69C840.928 266.051 840.508 265.249 840.154 264.652C837.29 265.118 834.551 265.938 831.992 267.066C826.831 274.393 825.432 281.539 826.132 288.583C829.555 290.984 832.872 292.443 836.134 293.398C836.939 292.357 837.657 291.25 838.276 290.083C837.098 289.663 835.969 289.144 834.903 288.541C835.186 288.344 835.462 288.138 835.73 287.926C842.234 290.785 849.301 290.785 855.728 287.926C855.998 288.138 856.275 288.344 856.555 288.541C855.485 289.147 854.353 289.666 853.175 290.086C853.794 291.25 854.509 292.36 855.317 293.401C858.582 292.446 861.902 290.987 865.325 288.583C866.146 280.417 863.923 273.337 859.449 267.06ZM839.162 284.251C837.21 284.251 835.608 282.538 835.608 280.453C835.608 278.367 837.175 276.652 839.162 276.652C841.149 276.652 842.75 278.364 842.716 280.453C842.719 282.538 841.149 284.251 839.162 284.251ZM852.295 284.251C850.343 284.251 848.741 282.538 848.741 280.453C848.741 278.367 850.308 276.652 852.295 276.652C854.282 276.652 855.883 278.364 855.849 280.453C855.849 282.538 854.282 284.251 852.295 284.251Z" fill="#5865F2"/>
</g>
<g filter="url(#filter3_d_267_2461)">
<rect x="24" y="223.326" width="127.159" height="117.03" rx="26.952" fill="white"/>
<rect x="24.8984" y="224.224" width="125.362" height="115.233" rx="26.0536" stroke="black" stroke-opacity="0.08" stroke-width="1.7968"/>
<path d="M61.7324 271.76C61.7324 265.498 61.7324 262.367 62.951 259.976C64.0229 257.872 65.7332 256.162 67.8369 255.09C70.2284 253.871 73.3591 253.871 79.6206 253.871H94.1547C100.416 253.871 103.547 253.871 105.938 255.09C108.042 256.162 109.752 257.872 110.824 259.976C112.043 262.367 112.043 265.498 112.043 271.76V286.294C112.043 292.555 112.043 295.686 110.824 298.077C109.752 300.181 108.042 301.891 105.938 302.963C103.547 304.182 100.416 304.182 94.1547 304.182H79.6206C73.3591 304.182 70.2284 304.182 67.8369 302.963C65.7332 301.891 64.0229 300.181 62.951 298.077C61.7324 295.686 61.7324 292.555 61.7324 286.294V271.76Z" fill="white"/>
<path d="M67.1221 292.61C67.1221 294.04 68.29 295.198 69.7289 295.198H69.7664C68.3054 295.198 67.1221 294.04 67.1221 292.61Z" fill="#FBBC05"/>
<path d="M89.5242 272.558V279.313L98.6316 271.967V265.443C98.6316 264.013 97.4637 262.855 96.0248 262.855H76.294L76.2764 272.558H89.5242Z" fill="#FBBC05"/>
<path d="M89.5226 286.071H76.2527L76.2373 295.198H96.0232C97.4643 295.198 98.63 294.041 98.63 292.611V286.72L89.5226 279.316V286.071Z" fill="#34A853"/>
<path d="M76.2933 262.855L67.1221 272.558H76.2779L76.2933 262.855Z" fill="#EA4335"/>
<path d="M67.1221 286.071V292.611C67.1221 294.04 68.3054 295.198 69.7664 295.198H76.2382L76.2537 286.071H67.1221Z" fill="#1967D2"/>
<path d="M76.2779 272.558H67.1221V286.071H76.2537L76.2779 272.558Z" fill="#4285F4"/>
<path d="M106.638 290.31V268.102C106.125 265.155 102.892 268.533 102.892 268.533L98.6328 271.968V286.718L104.73 291.675C106.931 291.964 106.638 290.31 106.638 290.31Z" fill="#34A853"/>
<path d="M89.5244 279.313L98.634 286.72V271.969L89.5244 279.313Z" fill="#188038"/>
</g>
<g filter="url(#filter4_d_267_2461)">
<rect x="387.917" y="131.57" width="151.736" height="143.502" rx="36.4636" fill="white"/>
<rect x="388.505" y="132.158" width="150.559" height="142.326" rx="35.8755" stroke="black" stroke-opacity="0.08" stroke-width="1.17624"/>
<g filter="url(#filter5_d_267_2461)">
<rect width="6.49841" height="30.5925" transform="translate(461.496 189.977)" fill="#FF7900"/>
<rect width="13.5967" height="6.79834" transform="translate(453.699 189.977)" fill="#FF7900"/>
<rect width="6.79834" height="6.79834" transform="translate(468.995 189.977)" fill="#FF7900"/>
<path fill-rule="evenodd" clip-rule="evenodd" d="M468.016 230.468C483.342 230.468 495.766 218.048 495.766 202.727C495.766 187.406 483.342 174.986 468.016 174.986C454.062 174.986 442.514 185.282 440.558 198.689C443.249 187.654 453.202 179.464 465.068 179.464C479.001 179.464 490.295 190.755 490.295 204.683C490.295 218.611 479.001 229.902 465.068 229.902C463.692 229.902 462.341 229.792 461.024 229.58C463.258 230.16 465.601 230.468 468.016 230.468Z" fill="#FF7900"/>
<path fill-rule="evenodd" clip-rule="evenodd" d="M479.228 235.014C462.32 242.994 442.143 235.76 434.161 218.858C426.179 201.955 433.415 181.785 450.323 173.806C463.857 167.419 479.485 170.779 489.277 181.042C480.353 172.045 466.392 169.171 454.278 174.888C438.907 182.142 432.329 200.479 439.585 215.845C446.841 231.21 465.184 237.787 480.555 230.533C495.173 223.634 501.839 206.71 496.214 191.852C502.823 208.341 495.51 227.331 479.228 235.014Z" fill="#001E9A"/>
</g>
</g>
<defs>
<filter id="filter0_d_267_2461" x="0.102547" y="29.3987" width="175.166" height="164.205" filterUnits="userSpaceOnUse" color-interpolation-filters="sRGB">
<feFlood flood-opacity="0" result="BackgroundImageFix"/>
<feColorMatrix in="SourceAlpha" type="matrix" values="0 0 0 0 0 0 0 0 0 0 0 0 0 0 0 0 0 0 127 0" result="hardAlpha"/>
<feOffset/>
<feGaussianBlur stdDeviation="11.9487"/>
<feComposite in2="hardAlpha" operator="out"/>
<feColorMatrix type="matrix" values="0 0 0 0 0 0 0 0 0 0 0 0 0 0 0 0 0 0 0.09 0"/>
<feBlend mode="normal" in2="BackgroundImageFix" result="effect1_dropShadow_267_2461"/>
<feBlend mode="normal" in="SourceGraphic" in2="effect1_dropShadow_267_2461" result="shape"/>
</filter>
<filter id="filter1_d_267_2461" x="758.73" y="29.3987" width="175.166" height="164.205" filterUnits="userSpaceOnUse" color-interpolation-filters="sRGB">
<feFlood flood-opacity="0" result="BackgroundImageFix"/>
<feColorMatrix in="SourceAlpha" type="matrix" values="0 0 0 0 0 0 0 0 0 0 0 0 0 0 0 0 0 0 127 0" result="hardAlpha"/>
<feOffset/>
<feGaussianBlur stdDeviation="11.9487"/>
<feComposite in2="hardAlpha" operator="out"/>
<feColorMatrix type="matrix" values="0 0 0 0 0 0 0 0 0 0 0 0 0 0 0 0 0 0 0.09 0"/>
<feBlend mode="normal" in2="BackgroundImageFix" result="effect1_dropShadow_267_2461"/>
<feBlend mode="normal" in="SourceGraphic" in2="effect1_dropShadow_267_2461" result="shape"/>
</filter>
<filter id="filter2_d_267_2461" x="758.943" y="199.428" width="174.954" height="164.825" filterUnits="userSpaceOnUse" color-interpolation-filters="sRGB">
<feFlood flood-opacity="0" result="BackgroundImageFix"/>
<feColorMatrix in="SourceAlpha" type="matrix" values="0 0 0 0 0 0 0 0 0 0 0 0 0 0 0 0 0 0 127 0" result="hardAlpha"/>
<feOffset/>
<feGaussianBlur stdDeviation="11.9487"/>
<feComposite in2="hardAlpha" operator="out"/>
<feColorMatrix type="matrix" values="0 0 0 0 0 0 0 0 0 0 0 0 0 0 0 0 0 0 0.09 0"/>
<feBlend mode="normal" in2="BackgroundImageFix" result="effect1_dropShadow_267_2461"/>
<feBlend mode="normal" in="SourceGraphic" in2="effect1_dropShadow_267_2461" result="shape"/>
</filter>
<filter id="filter3_d_267_2461" x="0.102547" y="199.428" width="174.954" height="164.825" filterUnits="userSpaceOnUse" color-interpolation-filters="sRGB">
<feFlood flood-opacity="0" result="BackgroundImageFix"/>
<feColorMatrix in="SourceAlpha" type="matrix" values="0 0 0 0 0 0 0 0 0 0 0 0 0 0 0 0 0 0 127 0" result="hardAlpha"/>
<feOffset/>
<feGaussianBlur stdDeviation="11.9487"/>
<feComposite in2="hardAlpha" operator="out"/>
<feColorMatrix type="matrix" values="0 0 0 0 0 0 0 0 0 0 0 0 0 0 0 0 0 0 0.09 0"/>
<feBlend mode="normal" in2="BackgroundImageFix" result="effect1_dropShadow_267_2461"/>
<feBlend mode="normal" in="SourceGraphic" in2="effect1_dropShadow_267_2461" result="shape"/>
</filter>
<filter id="filter4_d_267_2461" x="372.273" y="115.926" width="183.023" height="174.79" filterUnits="userSpaceOnUse" color-interpolation-filters="sRGB">
<feFlood flood-opacity="0" result="BackgroundImageFix"/>
<feColorMatrix in="SourceAlpha" type="matrix" values="0 0 0 0 0 0 0 0 0 0 0 0 0 0 0 0 0 0 127 0" result="hardAlpha"/>
<feOffset/>
<feGaussianBlur stdDeviation="7.82203"/>
<feComposite in2="hardAlpha" operator="out"/>
<feColorMatrix type="matrix" values="0 0 0 0 0 0 0 0 0 0 0 0 0 0 0 0 0 0 0.09 0"/>
<feBlend mode="normal" in2="BackgroundImageFix" result="effect1_dropShadow_267_2461"/>
<feBlend mode="normal" in="SourceGraphic" in2="effect1_dropShadow_267_2461" result="shape"/>
</filter>
<filter id="filter5_d_267_2461" x="376.466" y="129.014" width="174.067" height="168.469" filterUnits="userSpaceOnUse" color-interpolation-filters="sRGB">
<feFlood flood-opacity="0" result="BackgroundImageFix"/>
<feColorMatrix in="SourceAlpha" type="matrix" values="0 0 0 0 0 0 0 0 0 0 0 0 0 0 0 0 0 0 127 0" result="hardAlpha"/>
<feOffset dy="10.2947"/>
<feGaussianBlur stdDeviation="11.3242"/>
<feComposite in2="hardAlpha" operator="out"/>
<feColorMatrix type="matrix" values="0 0 0 0 0 0 0 0 0 0 0 0 0 0 0 0 0 0 0.1 0"/>
<feBlend mode="normal" in2="BackgroundImageFix" result="effect1_dropShadow_267_2461"/>
<feBlend mode="normal" in="SourceGraphic" in2="effect1_dropShadow_267_2461" result="shape"/>
</filter>
<linearGradient id="paint0_linear_267_2461" x1="105.754" y1="92.8258" x2="65.3262" y2="130.559" gradientUnits="userSpaceOnUse">
<stop stop-color="#5BD066"/>
<stop offset="1" stop-color="#27B43E"/>
</linearGradient>
<linearGradient id="paint1_linear_267_2461" x1="845.518" y1="83.8418" x2="845.518" y2="134.152" gradientUnits="userSpaceOnUse">
<stop stop-color="#37BBFE"/>
<stop offset="1" stop-color="#007DBB"/>
</linearGradient>
</defs>
</svg>
