<svg width="28" height="29" viewBox="0 0 28 29" fill="none" xmlns="http://www.w3.org/2000/svg">
<rect y="0.589844" width="28" height="28" rx="14" fill="#FF0068"/>
<g clip-path="url(#clip0_383_1411)">
<path d="M14.2258 8.66522C16.1565 8.66522 16.3851 8.67369 17.1444 8.70756C17.85 8.73861 18.231 8.85716 18.4851 8.95595C18.821 9.08579 19.0637 9.24385 19.3149 9.49506C19.569 9.74909 19.7242 9.98901 19.854 10.3249C19.9528 10.5789 20.0714 10.9628 20.1024 11.6656C20.1363 12.4277 20.1448 12.6564 20.1448 14.5842C20.1448 16.5148 20.1363 16.7435 20.1024 17.5027C20.0714 18.2084 19.9528 18.5894 19.854 18.8435C19.7242 19.1793 19.5661 19.4221 19.3149 19.6733C19.0609 19.9273 18.821 20.0826 18.4851 20.2124C18.231 20.3112 17.8472 20.4297 17.1444 20.4608C16.3823 20.4947 16.1536 20.5031 14.2258 20.5031C12.2952 20.5031 12.0665 20.4947 11.3073 20.4608C10.6016 20.4297 10.2206 20.3112 9.96653 20.2124C9.63065 20.0826 9.3879 19.9245 9.13669 19.6733C8.88266 19.4193 8.72742 19.1793 8.59758 18.8435C8.49879 18.5894 8.38024 18.2055 8.34919 17.5027C8.31532 16.7406 8.30685 16.512 8.30685 14.5842C8.30685 12.6535 8.31532 12.4249 8.34919 11.6656C8.38024 10.96 8.49879 10.5789 8.59758 10.3249C8.72742 9.98901 8.88548 9.74627 9.13669 9.49506C9.39073 9.24103 9.63065 9.08579 9.96653 8.95595C10.2206 8.85716 10.6044 8.73861 11.3073 8.70756C12.0665 8.67369 12.2952 8.66522 14.2258 8.66522ZM14.2258 7.36401C12.2641 7.36401 12.0185 7.37248 11.248 7.40635C10.4802 7.44022 9.95242 7.56442 9.49516 7.74224C9.01815 7.92853 8.61452 8.17409 8.21371 8.57772C7.81008 8.97853 7.56452 9.38216 7.37823 9.85635C7.2004 10.3164 7.07621 10.8414 7.04234 11.6092C7.00847 12.3826 7 12.6281 7 14.5898C7 16.5515 7.00847 16.7971 7.04234 17.5676C7.07621 18.3354 7.2004 18.8632 7.37823 19.3205C7.56452 19.7975 7.81008 20.2011 8.21371 20.6019C8.61452 21.0027 9.01815 21.2511 9.49234 21.4346C9.95242 21.6124 10.4774 21.7366 11.2452 21.7705C12.0157 21.8043 12.2613 21.8128 14.223 21.8128C16.1847 21.8128 16.4302 21.8043 17.2008 21.7705C17.9685 21.7366 18.4964 21.6124 18.9536 21.4346C19.4278 21.2511 19.8315 21.0027 20.2323 20.6019C20.6331 20.2011 20.8815 19.7975 21.0649 19.3233C21.2427 18.8632 21.3669 18.3382 21.4008 17.5705C21.4347 16.7999 21.4431 16.5543 21.4431 14.5926C21.4431 12.6309 21.4347 12.3854 21.4008 11.6148C21.3669 10.8471 21.2427 10.3193 21.0649 9.862C20.8871 9.38216 20.6415 8.97853 20.2379 8.57772C19.8371 8.17692 19.4335 7.92853 18.9593 7.74506C18.4992 7.56724 17.9742 7.44305 17.2065 7.40917C16.4331 7.37248 16.1875 7.36401 14.2258 7.36401Z" fill="white"/>
<path d="M14.2254 10.8782C12.1762 10.8782 10.5137 12.5407 10.5137 14.5899C10.5137 16.6391 12.1762 18.3016 14.2254 18.3016C16.2746 18.3016 17.9371 16.6391 17.9371 14.5899C17.9371 12.5407 16.2746 10.8782 14.2254 10.8782ZM14.2254 16.9975C12.8959 16.9975 11.8177 15.9193 11.8177 14.5899C11.8177 13.2604 12.8959 12.1822 14.2254 12.1822C15.5548 12.1822 16.633 13.2604 16.633 14.5899C16.633 15.9193 15.5548 16.9975 14.2254 16.9975Z" fill="white"/>
<path d="M18.9508 10.7313C18.9508 11.2111 18.5613 11.5978 18.0843 11.5978C17.6045 11.5978 17.2178 11.2083 17.2178 10.7313C17.2178 10.2514 17.6073 9.86475 18.0843 9.86475C18.5613 9.86475 18.9508 10.2543 18.9508 10.7313Z" fill="white"/>
</g>
<defs>
<clipPath id="clip0_383_1411">
<rect width="14.4516" height="14.4516" fill="white" transform="translate(7 7.36401)"/>
</clipPath>
</defs>
</svg>
