<svg width="29" height="29" viewBox="0 0 29 29" fill="none" xmlns="http://www.w3.org/2000/svg">
<rect x="0.721772" y="0.943452" width="27.5838" height="27.5838" rx="13.7919" stroke="white" stroke-width="0.4162"/>
<path d="M17.7065 9.30811H11.3215C9.40592 9.30811 8.12891 10.2659 8.12891 12.5007V16.9702C8.12891 19.205 9.40592 20.1628 11.3215 20.1628H17.7065C19.6221 20.1628 20.8991 19.205 20.8991 16.9702V12.5007C20.8991 10.2659 19.6221 9.30811 17.7065 9.30811ZM18.0066 13.1966L16.0081 14.7929C15.5867 15.1313 15.0503 15.2973 14.514 15.2973C13.9776 15.2973 13.4349 15.1313 13.0199 14.7929L11.0214 13.1966C10.817 13.0306 10.7851 12.7241 10.9447 12.5198C11.1107 12.3155 11.4108 12.2772 11.6152 12.4432L13.6137 14.0395C14.099 14.4289 14.9226 14.4289 15.4079 14.0395L17.4064 12.4432C17.6108 12.2772 17.9173 12.3091 18.0769 12.5198C18.2429 12.7241 18.211 13.0306 18.0066 13.1966Z" fill="white"/>
</svg>
