<svg width="35" height="36" viewBox="0 0 35 36" fill="none" xmlns="http://www.w3.org/2000/svg">
<rect width="2.52495" height="11.8867" transform="translate(16.2383 12.4766)" fill="white"/>
<rect width="5.28297" height="2.64149" transform="translate(13.208 12.4766)" fill="white"/>
<rect width="2.64149" height="2.64149" transform="translate(19.1514 12.4766)" fill="white"/>
<path fill-rule="evenodd" clip-rule="evenodd" d="M18.7691 28.2096C24.724 28.2096 29.5514 23.3838 29.5514 17.4309C29.5514 11.4779 24.724 6.6521 18.7691 6.6521C13.3435 6.6521 8.85387 10.6582 8.09863 15.8728C9.14032 11.5799 13.0102 8.39214 17.6248 8.39214C23.0383 8.39214 27.4269 12.7792 27.4269 18.191C27.4269 23.6028 23.0383 27.9899 17.6248 27.9899C17.0892 27.9899 16.5637 27.9469 16.0514 27.8643C16.9196 28.0897 17.8304 28.2096 18.7691 28.2096Z" fill="white"/>
<path fill-rule="evenodd" clip-rule="evenodd" d="M23.1257 29.976C16.5561 33.0763 8.71636 30.2657 5.61502 23.6983C2.51368 17.131 5.32521 9.29372 11.8947 6.19339C17.1554 3.71077 23.2305 5.01835 27.0349 9.01005C23.5677 5.51042 18.1405 4.39177 13.4312 6.61419C7.45889 9.43266 4.90296 16.5574 7.72236 22.5278C10.5418 28.4981 17.6688 31.0532 23.6411 28.2348C29.3229 25.5534 31.9126 18.9745 29.7235 13.2C32.295 19.6081 29.4538 26.9896 23.1257 29.976Z" fill="white"/>
</svg>
