<svg width="30" height="23" viewBox="0 0 30 23" fill="none" xmlns="http://www.w3.org/2000/svg">
<path d="M27.3615 2.13163C29.0782 3.95496 29.9999 5.99996 29.9999 9.31496C29.9999 15.1483 25.9049 20.3766 19.9499 22.9616L18.4615 20.665C24.0199 17.6583 25.1065 13.7566 25.5399 11.2966C24.6449 11.76 23.4732 11.9216 22.3249 11.815C19.3182 11.5366 16.9482 9.06829 16.9482 5.99996C16.9482 4.45286 17.5628 2.96913 18.6567 1.87517C19.7507 0.781208 21.2344 0.166626 22.7815 0.166626C24.5699 0.166626 26.2799 0.983293 27.3615 2.13163ZM10.6949 2.13163C12.4115 3.95496 13.3332 5.99996 13.3332 9.31496C13.3332 15.1483 9.2382 20.3766 3.2832 22.9616L1.79487 20.665C7.3532 17.6583 8.43987 13.7566 8.8732 11.2966C7.9782 11.76 6.80654 11.9216 5.6582 11.815C2.65154 11.5366 0.283203 9.06829 0.283203 5.99996C0.283203 4.45286 0.897784 2.96913 1.99175 1.87517C3.08571 0.781208 4.56944 0.166626 6.11654 0.166626C7.90487 0.166626 9.61487 0.983293 10.6965 2.13163H10.6949Z" fill="#F59E00"/>
</svg>
